# AST/ASF file generated using VICON BodyLanguage
# -----------------------------------------------
:version 1.10
:name VICON
:units
  mass 1.0
  length 0.45
  angle deg
:documentation
   .ast/.asf automatically generated from VICON data using
   VICON BodyBuilder and BodyLanguage model FoxedUp or BRILLIANT.MOD
:root
   order TX TY TZ RX RY RZ
   axis XYZ
   position 0 0 0  
   orientation 0 0 0 
:bonedata
  begin
     id 1 
     name lhipjoint
     direction 0.671379 -0.66392 0.329334 
     length 2.38647 
     axis 0 0 0  XYZ
  end
  begin
     id 2 
     name lfemur
     direction 0.34202 -0.939693 0  
     length 6.48179  
     axis 0 0 20  XYZ
    dof rx ry rz
    limits (-160.0 20.0)
           (-70.0 70.0)
           (-60.0 70.0)
  end
  begin
     id 3 
     name ltibia
     direction 0.34202 -0.939693 0   
     length 6.86524   
     axis 0 0 20   XYZ
    dof rx
    limits (-10.0 170.0)
  end
  begin
     id 4 
     name lfoot
     direction 0.204886 -0.562919 0.800715   
     length 1.73031   
     axis -90 7.62852e-016 20   XYZ
    dof rx rz
    limits (-45.0 90.0)
           (-70.0 20.0)
  end
  begin
     id 5 
     name ltoes
     direction 1.53548e-011 -4.21841e-011 1   
     length 0.828161   
     axis -90 7.62852e-016 20   XYZ
    dof rx
    limits (-90.0 20.0)
  end
  begin
     id 6 
     name rhipjoint
     direction -0.662732 -0.670855 0.332775   
     length 2.3618  
     axis 0 0 0  XYZ 
  end
  begin
     id 7 
     name rfemur
     direction -0.34202 -0.939693 0   
     length 6.3025   
     axis 0 0 -20   XYZ
    dof rx ry rz
    limits (-160.0 20.0)
           (-70.0 70.0)
           (-70.0 60.0)
  end
  begin
     id 8 
     name rtibia
     direction -0.34202 -0.939693 0   
     length 6.8732   
     axis 0 0 -20   XYZ
    dof rx
    limits (-10.0 170.0)
 end
 begin
     id 9 
     name rfoot
     direction -0.173856 -0.477665 0.861168   
     length 1.54784  
     axis -90 -7.62852e-016 -20   XYZ
    dof rx rz
    limits (-45.0 90.0)
           (-20.0 70.0)
  end
  begin
     id 10 
     name rtoes
     direction -1.53562e-011 -4.21802e-011 1   
     length 0.759618   
     axis -90 -7.62852e-016 -20   XYZ
    dof rx
    limits (-90.0 20.0)
  end
  begin
     id 11 
     name lowerback
     direction -0.0278357 0.999497 -0.0151789   
     length 1.97203   
     axis 0 0 0   XYZ
    dof rx ry rz
    limits (-20.0 45.0)
           (-30.0 30.0)
           (-30.0 30.0)
  end
  begin
     id 12 
     name upperback
     direction -0.00360622 0.997542 0.0699804   
     length 1.94709   
     axis 0 0 0   XYZ
    dof rx ry rz
    limits (-20.0 45.0)
           (-30.0 30.0)
           (-30.0 30.0)
  end
  begin
     id 13 
     name thorax
     direction 0.00907706 0.997048 0.0762461   
     length 1.95722   
     axis 0 0 0   XYZ
    dof rx ry rz
    limits (-20.0 45.0)
           (-30.0 30.0)
           (-30.0 30.0)
  end
  begin
     id 14 
     name lowerneck
     direction -0.0481835 0.99872 -0.0153927   
     length 1.63078   
     axis 0 0 0   XYZ
    dof rx ry rz
    limits (-20.0 45.0)
           (-30.0 30.0)
           (-30.0 30.0)
  end
  begin
     id 15 
     name upperneck
     direction 0.0859716 0.979226 -0.183644   
     length 1.62591   
     axis 0 0 0   XYZ
    dof rx ry rz
    limits (-20.0 45.0)
           (-30.0 30.0)
           (-30.0 30.0)
  end
  begin
     id 16
     name head
     direction 0.0324821 0.997629 -0.0606773  
     length 1.64811  
     axis 0 0 0   XYZ
    dof rx ry rz
    limits (-20.0 45.0)
           (-30.0 30.0)
           (-30.0 30.0)
  end
  begin
     id 17 
     name lclavicle
     direction 0.939609 0.311019 0.142835  
     length 3.70647  
     axis 0 0 0   XYZ
    dof ry rz
    limits (-20.0 10.0)
           (0.0 20.0)
  end
  begin
     id 18 
     name lhumerus
     direction 1 -4.48963e-011 -1.59838e-027   
     length 4.59207   
     axis 180 -30 -90   XYZ
    dof rx ry rz
    limits (-60.0 90.0)
           (-90.0 90.0)
           (-90.0 90.0)
  end
  begin
     id 19
     name lradius
     direction 1 -4.48957e-011 -1.3483e-026   
     length 2.98109   
     axis 180 -30 -90   XYZ
    dof rx
    limits (-10.0 170.0)
  end
  begin
     id 20
     name lwrist
     direction 1 -4.48954e-011 -3.11579e-026   
     length 1.49055   
     axis 2.00652e-014 90 90   XYZ
    dof ry
    limits (-180.0 0.0)
 end
  begin
     id 21 
     name lhand
     direction 1 -4.4911e-011 -6.23158e-026   
     length 0.480203   
     axis 3.97628e-014 90 90   XYZ
    dof rx rz
    limits (-90.0 90.0)
           (-45.0 45.0)
  end
  begin
     id 22 
     name lfingers
     direction 1 -4.48893e-011 -1.24632e-025   
     length 0.387152   
     axis 7.95256e-014 90 90   XYZ
    dof rx
    limits (0.0 90.0)
  end
  begin
     id 23
     name lthumb
     direction 0.707107 -6.35013e-011 0.707107   
     length 0.555875   
     axis -90 45 2.85299e-015   XYZ
    dof rx rz
    limits (-45.0 45.0)
           (-45.0 45.0)
  end
  begin
     id 24 
     name rclavicle
     direction -0.950396 0.30392 0.0661859   
     length 3.70894  
     axis 0 0 0   XYZ 
    dof ry rz
    limits (-10.0 20.0)
           (-20.0 0.0)
  end
  begin
     id 25 
     name rhumerus
     direction -1 -4.48957e-011 -2.96677e-027  
     length 4.76508   
     axis 180 30 90   XYZ
    dof rx ry rz
    limits (-90.0 60.0)
           (-90.0 90.0)
           (-90.0 90.0)
  end
  begin
     id 26 
     name rradius
     direction -1 -4.48974e-011 -1.44501e-026   
     length 2.78902   
     axis 180 30 90   XYZ
    dof rx
    limits (-10.0 170.0)
  end
  begin
     id 27 
     name rwrist
     direction -1 -4.48978e-011 -3.11579e-026   
     length 1.39451   
     axis 2.00652e-014 -90 -90   XYZ
    dof ry
    limits (-180.0 0.0)
  end
  begin
     id 28
     name rhand
     direction -1 -4.48956e-011 -6.23158e-026   
     length 0.721303   
     axis 3.97628e-014 -90 -90   XYZ
    dof rx rz
    limits (-90.0 90.0)
           (-45.0 45.0)
  end
  begin
     id 29
     name rfingers
     direction -1 -4.4899e-011 -1.24632e-025   
     length 0.581533   
     axis 7.95256e-014 -90 -90   XYZ
    dof rx
    limits (0.0 90.0)
  end
  begin
     id 30
     name rthumb
     direction -0.707107 -6.34911e-011 0.707107   
     length 0.834968   
     axis -90 -45 -2.85299e-015   XYZ
    dof rx rz
    limits (-45.0 45.0)
           (-45.0 45.0)
  end
:hierarchy
  begin
    root lhipjoint rhipjoint lowerback
    lhipjoint lfemur
    lfemur ltibia
    ltibia lfoot
    lfoot ltoes
    rhipjoint rfemur
    rfemur rtibia
    rtibia rfoot
    rfoot rtoes
    lowerback upperback
    upperback thorax
    thorax lowerneck lclavicle rclavicle
    lowerneck upperneck
    upperneck head
    lclavicle lhumerus
    lhumerus lradius
    lradius lwrist
    lwrist lhand lthumb
    lhand lfingers
    rclavicle rhumerus
    rhumerus rradius
    rradius rwrist
    rwrist rhand rthumb
    rhand rfingers
  end

#!OML:ASF I:\salsa\salsa 7_09\Patient 1\Session 1\dancerfemale.ASF
:FULLY-SPECIFIED
:DEGREES
1711
root 5.9681 15.8915 5.92406 -2518.42 -162.548 11.4177
lowerback 5.52137 -0.0886888 5.32549
upperback -8.10501 0.256974 5.00488
thorax -11.868 -0.371197 2.48395
lowerneck -3.07037 -0.851334 -4.62425
upperneck 7.79898 -2.60523 14.3511
head 3.0412 -1.15585 5.03551
rclavicle -1.23743e-014 -2.34566e-014
rhumerus -2.18178 -10.6027 -62.7239
rradius 104.773
rwrist -1.28234
rhand 8.2325 43.3827
rfingers 7.12502
rthumb 33.4481 16.4781
lclavicle -1.23743e-014 -2.34566e-014
lhumerus -41.856 -16.0698 77.2204
lradius 115.311
lwrist -26.2874
lhand -11.7978 -338.665
lfingers 7.12502
lthumb 14.2519 -669.174
rfemur -11.876 -7.62362 35.0527
rtibia 22.4847
rfoot -17.4385 8.21683
rtoes -5.65321
lfemur -34.3145 -10.5352 6.15635
ltibia 55.032
lfoot -18.7562 -1.43019
ltoes -34.126
1712
root 5.7132 15.887 5.84642 -2519 -165.719 11.9906
lowerback 6.32173 0.294238 5.75298
upperback -7.76781 0.900737 5.242
thorax -11.9779 -0.0865895 2.40461
lowerneck -2.68996 -1.20733 -4.59361
upperneck 7.50599 -3.08738 14.3471
head 2.93753 -1.42718 5.00994
rclavicle 4.67641e-014 4.65156e-014
rhumerus -2.86653 -11.8924 -61.2183
rradius 104.2
rwrist -0.712612
rhand 6.95397 44.8752
rfingers 7.12502
rthumb 32.2319 17.716
lclavicle 4.67641e-014 4.65156e-014
lhumerus -41.2958 -14.9384 75.3838
lradius 114.711
lwrist -26.4595
lhand -10.6251 -338.831
lfingers 7.12502
lthumb 15.3816 -669.423
rfemur -10.0204 -7.61842 34.5879
rtibia 21.6294
rfoot -16.7731 10.6889
rtoes -4.58189
lfemur -32.4623 -17.0099 9.32946
ltibia 50.8456
lfoot -19.4383 -4.42379
ltoes -35.0933
1713
root 5.45401 15.8806 5.78678 -2518.95 -168.645 12.1988
lowerback 6.68543 0.59916 5.86518
upperback -7.54219 1.35191 5.47505
thorax -11.9477 0.125903 2.5202
lowerneck -2.44063 -1.63175 -4.71276
upperneck 7.32367 -3.64582 14.2366
head 2.89671 -1.72985 4.97478
rclavicle -1.63997e-015 -2.22639e-014
rhumerus -3.68132 -12.7885 -59.8953
rradius 103.447
rwrist -0.128512
rhand 5.02455 47.3055
rfingers 7.12502
rthumb 30.3934 19.7902
lclavicle -1.63997e-015 -2.22639e-014
lhumerus -40.6554 -13.4449 73.9714
lradius 113.761
lwrist -26.6589
lhand -9.93249 -338.81
lfingers 7.12502
lthumb 16.0487 -669.454
rfemur -9.19478 -7.55653 33.7997
rtibia 21.366
rfoot -16.394 13.0228
rtoes -4.49391
lfemur -31.6977 -22.45 11.7001
ltibia 47.6738
lfoot -19.4339 -7.53623
ltoes -35.6769
1714
root 5.17222 15.8651 5.72958 -2519.06 -171.611 11.9114
lowerback 7.46784 0.821297 5.60283
upperback -7.36321 1.70214 5.612
thorax -12.2363 0.32269 2.75918
lowerneck -2.16675 -2.01657 -5.11594
upperneck 7.40782 -4.18906 14.2478
head 2.9355 -2.02467 5.02827
rclavicle 2.11209e-014 -5.56597e-015
rhumerus -4.96985 -13.1934 -58.814
rradius 102.784
rwrist 0.137955
rhand 2.68002 49.9915
rfingers 7.12502
rthumb 28.1548 22.0855
lclavicle 2.11209e-014 -5.56597e-015
lhumerus -40.1718 -11.9341 72.8863
lradius 112.382
lwrist -26.7595
lhand -10.496 -338.64
lfingers 7.12502
lthumb 15.506 -669.242
rfemur -8.55407 -7.02447 32.3222
rtibia 21.7712
rfoot -16.5129 14.8143
rtoes -6.19065
lfemur -30.4815 -26.2841 12.3654
ltibia 45.7457
lfoot -19.7956 -11.1041
ltoes -37.6271
1715
root 4.88987 15.8524 5.67084 -2519.02 -174.959 11.2274
lowerback 7.86232 1.14023 4.94121
upperback -7.03857 2.09706 5.56026
thorax -12.125 0.585249 2.98532
lowerneck -1.91222 -2.36386 -5.48886
upperneck 7.42801 -4.70213 14.407
head 2.96058 -2.3054 5.12344
rclavicle -1.05356e-014 4.37326e-015
rhumerus -6.34006 -13.7727 -58.157
rradius 102.154
rwrist 0.0689497
rhand 0.302581 53.1216
rfingers 7.12502
rthumb 25.8802 24.8628
lclavicle -1.05356e-014 4.37326e-015
lhumerus -39.7068 -10.3485 71.933
lradius 111.055
lwrist -27.1378
lhand -11.1676 -338.298
lfingers 7.12502
lthumb 14.8591 -668.851
rfemur -8.52844 -5.19196 30.4826
rtibia 23.0462
rfoot -17.059 15.6396
rtoes -7.92698
lfemur -28.6242 -28.0057 11.3982
ltibia 45.124
lfoot -20.1027 -14.1441
ltoes -43.4338
